#!OML:ASF E:\pregnant2\Project 1\Capture day 1\Session 1\pregnant2.ASF
:FULLY-SPECIFIED
:DEGREES
1089
root 2.74444 10.7043 11.9725 -166.844 44.6197 148.414
lowerback 1.22172 3.3006 -1.31705
upperback -7.86974 4.5776 -4.19901
thorax -8.72303 2.39313 -4.14004
lowerneck -22.8867 -3.99773 -4.07508
upperneck 28.8479 -0.0780022 -8.74924
head 13.7144 -1.34101 -2.72216
rclavicle -1.51076e-013 9.85972e-014
rhumerus -15.6006 27.3202 -78.6435
rradius 28.685
rwrist 18.8452
rhand -7.0027 -18.313
rfingers 7.12502
rthumb 18.8682 -47.4178
lclavicle -1.51076e-013 9.85972e-014
lhumerus -59.4827 -30.7214 100.127
lradius 104.117
lwrist -23.1679
lhand -26.8979 34.6942
lfingers 7.12502
lthumb -0.321473 64.6737
rfemur -60.4448 -23.7611 20.891
rtibia 120.351
rfoot -3.05629 4.85908
rtoes 11.002
lfemur -112.78 2.45099 -42.1808
ltibia 111.845
lfoot -30.2991 5.69259
ltoes -28.8399
1090
root 2.7427 10.7103 11.9486 -166.963 44.8939 148.664
lowerback 1.20605 3.33324 -1.31446
upperback -7.85015 4.6206 -4.16804
thorax -8.692 2.41401 -4.10875
lowerneck -22.8269 -3.90835 -3.89686
upperneck 28.7997 0.0425297 -8.94724
head 13.685 -1.2923 -2.80568
rclavicle 8.74653e-015 1.59028e-014
rhumerus -16.0642 27.4708 -79.1492
rradius 29.0985
rwrist 18.5211
rhand -7.04618 -18.4387
rfingers 7.12502
rthumb 18.8264 -47.5477
lclavicle 8.74653e-015 1.59028e-014
lhumerus -59.5142 -31.0139 100.279
lradius 104.088
lwrist -23.2668
lhand -27.0297 34.6843
lfingers 7.12502
lthumb -0.4488 64.6635
rfemur -59.9663 -23.4271 20.7041
rtibia 120.226
rfoot -3.06277 5.07515
rtoes 10.9185
lfemur -113.077 1.97398 -42.6435
ltibia 111.481
lfoot -30.8665 4.43115
ltoes -28.862
1091
root 2.73993 10.7126 11.9239 -167.051 45.0787 148.876
lowerback 1.17713 3.33891 -1.30219
upperback -7.85758 4.63017 -4.1532
thorax -8.68275 2.41834 -4.09852
lowerneck -22.7224 -3.75073 -4.02593
upperneck 28.8245 0.285003 -8.83274
head 13.6851 -1.1812 -2.69171
rclavicle -6.91771e-014 6.36111e-015
rhumerus -16.499 27.589 -79.6993
rradius 29.4298
rwrist 18.1941
rhand -7.01495 -18.5745
rfingers 7.12502
rthumb 18.8564 -47.6805
lclavicle -6.91771e-014 6.36111e-015
lhumerus -59.5224 -31.2611 100.406
lradius 104.045
lwrist -23.499
lhand -27.1018 34.6514
lfingers 7.12502
lthumb -0.518379 64.6305
rfemur -59.5563 -23.2441 20.5314
rtibia 120.126
rfoot -3.04993 5.30985
rtoes 10.6595
lfemur -113.337 1.36168 -43.117
ltibia 111.088
lfoot -31.4049 3.26562
ltoes -29.4628
1092
root 2.73837 10.7199 11.8998 -167.243 45.2026 148.984
lowerback 1.23406 3.30868 -1.32541
upperback -7.85478 4.5835 -4.15589
thorax -8.71746 2.39501 -4.08947
lowerneck -22.7272 -3.73544 -4.09056
upperneck 28.9082 0.287657 -8.68551
head 13.7208 -1.17046 -2.62512
rclavicle -8.74653e-014 1.27222e-013
rhumerus -16.901 27.8716 -80.2714
rradius 29.6529
rwrist 17.6325
rhand -7.53385 -18.3403
rfingers 7.12502
rthumb 18.3573 -47.4941
lclavicle -8.74653e-014 1.27222e-013
lhumerus -59.4707 -31.4567 100.498
lradius 103.98
lwrist -23.8407
lhand -27.0381 34.5756
lfingers 7.12502
lthumb -0.456919 64.5548
rfemur -59.0671 -23.1851 20.2319
rtibia 120.015
rfoot -3.06957 5.60554
rtoes 10.3337
lfemur -113.427 0.702786 -43.6124
ltibia 110.656
lfoot -31.9601 1.8209
ltoes -29.6643
1093
root 2.73683 10.7217 11.8729 -167.321 45.4592 149.198
lowerback 1.18141 3.33991 -1.30312
upperback -7.83608 4.62641 -4.17342
thorax -8.66035 2.41434 -4.11754
lowerneck -22.737 -3.72005 -4.01954
upperneck 28.9598 0.269894 -8.64707
head 13.7419 -1.16802 -2.62752
rclavicle 3.33958e-014 2.8625e-014
rhumerus -17.2753 27.9573 -80.8071
rradius 29.9302
rwrist 17.433
rhand -7.55719 -18.4878
rfingers 7.12502
rthumb 18.3349 -47.6437
lclavicle 3.33958e-014 2.8625e-014
lhumerus -59.3836 -31.73 100.563
lradius 103.953
lwrist -24.1175
lhand -26.9575 34.5921
lfingers 7.12502
lthumb -0.379059 64.5715
rfemur -58.6861 -22.9102 20.0616
rtibia 119.92
rfoot -3.0523 5.78303
rtoes 10.0542
lfemur -113.619 0.163924 -44.012
ltibia 110.266
lfoot -32.4568 0.399509
ltoes -29.6823
